<?xml version="1.0" standalone="no"?>
<!DOCTYPE svg PUBLIC "-//W3C//DTD SVG 20010904//EN"
 "http://www.w3.org/TR/2001/REC-SVG-20010904/DTD/svg10.dtd">
<svg version="1.0" xmlns="http://www.w3.org/2000/svg"
 width="256.000000pt" height="256.000000pt" viewBox="0 0 256.000000 256.000000"
 preserveAspectRatio="xMidYMid meet">
<metadata>
Created by potrace 1.11, written by Peter Selinger 2001-2013
</metadata>
<g transform="translate(0.000000,256.000000) scale(0.100000,-0.100000)"
fill="#000000" stroke="none">
<path d="M273 2320 c-13 -5 -32 -24 -43 -42 -20 -32 -20 -50 -20 -998 0 -947
0 -966 20 -998 11 -18 32 -37 46 -42 15 -6 245 -10 584 -10 l558 0 5 23 c15
58 197 996 197 1011 0 15 -16 16 -171 14 l-171 -3 -118 -220 c-65 -121 -129
-227 -141 -235 -17 -11 -62 -16 -187 -18 -172 -4 -217 0 -245 21 -14 10 -35
146 -117 752 -55 406 -100 743 -100 747 0 11 -69 9 -97 -2z"/>
<path d="M750 2310 c0 -26 120 -1122 124 -1135 2 -5 134 252 295 573 l291 582
-355 0 c-349 0 -355 0 -355 -20z"/>
<path d="M1802 2258 c-91 -167 -362 -678 -362 -683 0 -3 205 -5 455 -5 l455 0
0 338 c0 319 -1 339 -20 370 -11 18 -32 37 -46 42 -14 6 -119 10 -234 10
l-209 0 -39 -72z"/>
<path d="M1888 755 l-105 -525 238 0 c131 0 249 4 263 10 14 5 35 24 46 42 19
32 20 51 20 516 l0 482 -179 0 -178 0 -105 -525z"/>
</g>
</svg>
